HIERARCHY
ROOT Hips
{
	OFFSET 0.000000 71.427986 0.000000
	CHANNELS 6 Xposition Yposition Zposition Xrotation Yrotation Zrotation
	JOINT Pelvis
	{
		OFFSET 0.000000 0.000000 0.000000
		CHANNELS 3 Xrotation Yrotation Zrotation
		JOINT LeftUpLeg
		{
			OFFSET 6.797100 -2.508499 -1.318700
			CHANNELS 3 Xrotation Yrotation Zrotation
			JOINT LeftLeg
			{
				OFFSET 0.069008 -29.241863 0.690200
				CHANNELS 3 Xrotation Yrotation Zrotation
				JOINT LeftFoot
				{
					OFFSET -0.069008 -29.568123 -0.266800
					CHANNELS 3 Xrotation Yrotation Zrotation
					JOINT LeftToeBase
					{
						OFFSET 3.145500 -8.631000 16.059900
						CHANNELS 3 Xrotation Yrotation Zrotation
						End Site
						{
							OFFSET 0.000000 18.501587 0.000000
						}
					}
				}
			}
			JOINT Left_ShortSleeve
			{
				OFFSET 0.265923 -10.480953 1.153800
				CHANNELS 3 Xrotation Yrotation Zrotation
				End Site
				{
					OFFSET 1.725763 19.823879 0.000000
				}
			}
		}
		JOINT RightUpLeg
		{
			OFFSET -6.797100 -2.508499 -1.318700
			CHANNELS 3 Xrotation Yrotation Zrotation
			JOINT RightLeg
			{
				OFFSET -0.082453 -29.241932 0.688000
				CHANNELS 3 Xrotation Yrotation Zrotation
				JOINT RightFoot
				{
					OFFSET 0.082453 -29.568058 -0.264600
					CHANNELS 3 Xrotation Yrotation Zrotation
					JOINT RightToeBase
					{
						OFFSET -3.115300 -8.682800 16.113400
						CHANNELS 3 Xrotation Yrotation Zrotation
						End Site
						{
							OFFSET 0.000000 18.567114 0.000000
						}
					}
				}
			}
			JOINT Right_ShortSleeve
			{
				OFFSET -0.265923 -10.480953 1.153800
				CHANNELS 3 Xrotation Yrotation Zrotation
				End Site
				{
					OFFSET -1.725766 19.823910 0.000000
				}
			}
		}
	}
	JOINT Spine
	{
		OFFSET 0.000000 13.368103 0.470500
		CHANNELS 3 Xrotation Yrotation Zrotation
		JOINT Spine1
		{
			OFFSET 0.147000 13.837402 0.538800
			CHANNELS 3 Xrotation Yrotation Zrotation
			JOINT Spine2
			{
				OFFSET 0.168000 16.242897 -1.435500
				CHANNELS 3 Xrotation Yrotation Zrotation
				JOINT Neck
				{
					OFFSET 0.217200 18.631500 -1.679100
					CHANNELS 3 Xrotation Yrotation Zrotation
					JOINT Head
					{
						OFFSET 0.000000 6.599396 1.385900
						CHANNELS 3 Xrotation Yrotation Zrotation
						JOINT Hat
						{
							OFFSET -0.532200 27.220596 -10.096100
							CHANNELS 3 Xrotation Yrotation Zrotation
							End Site
							{
								OFFSET 0.000000 22.029861 0.000000
							}
						}
						JOINT HairD
						{
							OFFSET -10.777400 17.437393 -1.325900
							CHANNELS 3 Xrotation Yrotation Zrotation
							JOINT HairD1
							{
								OFFSET -3.290299 -11.051193 1.062200
								CHANNELS 3 Xrotation Yrotation Zrotation
								End Site
								{
									OFFSET 0.000000 11.579437 0.000000
								}
							}
						}
						JOINT HairB
						{
							OFFSET -10.777400 17.437393 1.467900
							CHANNELS 3 Xrotation Yrotation Zrotation
							JOINT HairB1
							{
								OFFSET -1.561200 -12.956299 3.590200
								CHANNELS 3 Xrotation Yrotation Zrotation
								End Site
								{
									OFFSET 0.000000 13.534866 0.000000
								}
							}
						}
						JOINT HairA
						{
							OFFSET 9.713100 17.437393 1.467900
							CHANNELS 3 Xrotation Yrotation Zrotation
							JOINT HairA1
							{
								OFFSET 1.561200 -12.956299 3.590200
								CHANNELS 3 Xrotation Yrotation Zrotation
								End Site
								{
									OFFSET 0.000000 13.534866 0.000000
								}
							}
						}
						JOINT HairC
						{
							OFFSET 9.713100 17.437393 -1.325900
							CHANNELS 3 Xrotation Yrotation Zrotation
							JOINT HairC1
							{
								OFFSET 3.290300 -11.051193 1.062200
								CHANNELS 3 Xrotation Yrotation Zrotation
								End Site
								{
									OFFSET 0.000000 11.579437 0.000000
								}
							}
						}
					}
				}
				JOINT LeftShoulder
				{
					OFFSET 5.101800 15.108002 -2.763700
					CHANNELS 3 Xrotation Yrotation Zrotation
					JOINT LeftArm
					{
						OFFSET 9.825497 2.506317 -1.597400
						CHANNELS 3 Xrotation Yrotation Zrotation
						JOINT LeftForeArm
						{
							OFFSET 21.966244 0.000000 0.000000
							CHANNELS 3 Xrotation Yrotation Zrotation
							JOINT LeftHand
							{
								OFFSET 33.879036 0.000000 0.000000
								CHANNELS 3 Xrotation Yrotation Zrotation
								JOINT LeftHandThumb1
								{
									OFFSET 6.715286 -2.359680 3.363841
									CHANNELS 3 Xrotation Yrotation Zrotation
									JOINT LeftHandThumb2
									{
										OFFSET 2.507072 -1.447464 1.447461
										CHANNELS 3 Xrotation Yrotation Zrotation
										JOINT LeftHandThumb3
										{
											OFFSET 2.898338 -1.673355 1.673357
											CHANNELS 3 Xrotation Yrotation Zrotation
											End Site
											{
												OFFSET -0.295959 3.727692 -0.131651
											}
										}
									}
								}
								JOINT LeftHandIndex1
								{
									OFFSET 14.190811 -0.254547 3.840278
									CHANNELS 3 Xrotation Yrotation Zrotation
									JOINT LeftHandIndex2
									{
										OFFSET 3.551727 0.000000 -0.000000
										CHANNELS 3 Xrotation Yrotation Zrotation
										JOINT LeftHandIndex3
										{
											OFFSET 2.894196 0.000000 0.000000
											CHANNELS 3 Xrotation Yrotation Zrotation
											End Site
											{
												OFFSET -1.000603 2.690872 0.366626
											}
										}
									}
								}
								JOINT LeftHandMiddle1
								{
									OFFSET 13.776489 0.000000 0.000000
									CHANNELS 3 Xrotation Yrotation Zrotation
									JOINT LeftHandMiddle2
									{
										OFFSET 3.438232 0.000000 0.000000
										CHANNELS 3 Xrotation Yrotation Zrotation
										JOINT LeftHandMiddle3
										{
											OFFSET 3.691551 0.000000 0.000000
											CHANNELS 3 Xrotation Yrotation Zrotation
											End Site
											{
												OFFSET -1.082298 3.499527 0.457670
											}
										}
									}
								}
								JOINT LeftHandRing1
								{
									OFFSET 13.966164 -0.268127 -3.067488
									CHANNELS 3 Xrotation Yrotation Zrotation
									JOINT LeftHandRing2
									{
										OFFSET 3.162567 0.000000 0.000000
										CHANNELS 3 Xrotation Yrotation Zrotation
										JOINT LeftHandRing3
										{
											OFFSET 3.324348 0.000000 0.000000
											CHANNELS 3 Xrotation Yrotation Zrotation
											End Site
											{
												OFFSET -0.861900 3.184998 0.405154
											}
										}
									}
								}
								JOINT LeftHandPinky1
								{
									OFFSET 13.131393 -0.168503 -5.746925
									CHANNELS 3 Xrotation Yrotation Zrotation
									JOINT LeftHandPinky2
									{
										OFFSET 2.849182 0.000000 0.000000
										CHANNELS 3 Xrotation Yrotation Zrotation
										JOINT LeftHandPinky3
										{
											OFFSET 2.805038 0.000000 0.000000
											CHANNELS 3 Xrotation Yrotation Zrotation
											End Site
											{
												OFFSET -0.882500 2.642609 0.325652
											}
										}
									}
								}
							}
							JOINT Left_Sleeve
							{
								OFFSET 6.592125 -0.646545 0.805568
								CHANNELS 3 Xrotation Yrotation Zrotation
								End Site
								{
									OFFSET -0.000179 20.275787 -0.000000
								}
							}
						}
					}
				}
				JOINT RightShoulder
				{
					OFFSET -5.731700 15.108002 -2.763700
					CHANNELS 3 Xrotation Yrotation Zrotation
					JOINT RightArm
					{
						OFFSET -9.825497 2.506317 -1.597400
						CHANNELS 3 Xrotation Yrotation Zrotation
						JOINT RightForeArm
						{
							OFFSET -21.966242 0.000000 0.000000
							CHANNELS 3 Xrotation Yrotation Zrotation
							JOINT RightHand
							{
								OFFSET -33.879032 0.000000 0.000000
								CHANNELS 3 Xrotation Yrotation Zrotation
								JOINT RightHandThumb1
								{
									OFFSET -6.715286 -2.359680 3.363841
									CHANNELS 3 Xrotation Yrotation Zrotation
									JOINT RightHandThumb2
									{
										OFFSET -2.507072 -1.447464 1.447461
										CHANNELS 3 Xrotation Yrotation Zrotation
										JOINT RightHandThumb3
										{
											OFFSET -2.898338 -1.673355 1.673357
											CHANNELS 3 Xrotation Yrotation Zrotation
											End Site
											{
												OFFSET 0.295959 3.727692 -0.131651
											}
										}
									}
								}
								JOINT RightHandIndex1
								{
									OFFSET -14.190811 -0.254547 3.840278
									CHANNELS 3 Xrotation Yrotation Zrotation
									JOINT RightHandIndex2
									{
										OFFSET -3.551727 0.000000 -0.000000
										CHANNELS 3 Xrotation Yrotation Zrotation
										JOINT RightHandIndex3
										{
											OFFSET -2.894196 0.000000 0.000000
											CHANNELS 3 Xrotation Yrotation Zrotation
											End Site
											{
												OFFSET 1.000603 2.690872 0.366626
											}
										}
									}
								}
								JOINT RightHandMiddle1
								{
									OFFSET -13.776489 0.000000 0.000000
									CHANNELS 3 Xrotation Yrotation Zrotation
									JOINT RightHandMiddle2
									{
										OFFSET -3.438232 0.000000 0.000000
										CHANNELS 3 Xrotation Yrotation Zrotation
										JOINT RightHandMiddle3
										{
											OFFSET -3.691551 0.000000 0.000000
											CHANNELS 3 Xrotation Yrotation Zrotation
											End Site
											{
												OFFSET 1.082298 3.499527 0.457670
											}
										}
									}
								}
								JOINT RightHandRing1
								{
									OFFSET -13.966164 -0.268127 -3.067488
									CHANNELS 3 Xrotation Yrotation Zrotation
									JOINT RightHandRing2
									{
										OFFSET -3.162567 0.000000 0.000000
										CHANNELS 3 Xrotation Yrotation Zrotation
										JOINT RightHandRing3
										{
											OFFSET -3.324348 0.000000 0.000000
											CHANNELS 3 Xrotation Yrotation Zrotation
											End Site
											{
												OFFSET 0.861900 3.184998 0.405154
											}
										}
									}
								}
								JOINT RightHandPinky1
								{
									OFFSET -13.131393 -0.168503 -5.746925
									CHANNELS 3 Xrotation Yrotation Zrotation
									JOINT RightHandPinky2
									{
										OFFSET -2.849182 0.000000 0.000000
										CHANNELS 3 Xrotation Yrotation Zrotation
										JOINT RightHandPinky3
										{
											OFFSET -2.805038 0.000000 0.000000
											CHANNELS 3 Xrotation Yrotation Zrotation
											End Site
											{
												OFFSET 0.882500 2.642609 0.325652
											}
										}
									}
								}
							}
							JOINT Right_Sleeve
							{
								OFFSET -6.592125 -0.646545 0.805568
								CHANNELS 3 Xrotation Yrotation Zrotation
								End Site
								{
									OFFSET 0.000179 20.275787 -0.000000
								}
							}
						}
					}
				}
				JOINT Bind_Right_JacketString
				{
					OFFSET -3.534800 11.969597 7.200700
					CHANNELS 3 Xrotation Yrotation Zrotation
					JOINT Bind_Right_JacketString1
					{
						OFFSET -0.319900 -6.102600 2.794100
						CHANNELS 3 Xrotation Yrotation Zrotation
						End Site
						{
							OFFSET 0.000000 6.719452 0.000000
						}
					}
				}
				JOINT Bind_Left_JacketString
				{
					OFFSET 2.904800 11.969597 7.200700
					CHANNELS 3 Xrotation Yrotation Zrotation
					JOINT Bind_Left_JacketString1
					{
						OFFSET 0.364800 -5.904503 3.186800
						CHANNELS 3 Xrotation Yrotation Zrotation
						End Site
						{
							OFFSET 0.000000 6.719513 0.000000
						}
					}
				}
				JOINT HairE
				{
					OFFSET 5.915200 17.612701 -11.592200
					CHANNELS 3 Xrotation Yrotation Zrotation
					JOINT HairE1
					{
						OFFSET 0.289200 -7.171898 -1.284500
						CHANNELS 3 Xrotation Yrotation Zrotation
						End Site
						{
							OFFSET 0.000000 7.291756 0.000000
						}
					}
				}
				JOINT HairF
				{
					OFFSET -0.864800 17.612701 -11.592200
					CHANNELS 3 Xrotation Yrotation Zrotation
					JOINT HairF1
					{
						OFFSET 0.000000 -14.087097 -2.127501
						CHANNELS 3 Xrotation Yrotation Zrotation
						End Site
						{
							OFFSET 0.000000 14.246841 0.000000
						}
					}
				}
				JOINT HairG
				{
					OFFSET -8.087700 17.612701 -11.592200
					CHANNELS 3 Xrotation Yrotation Zrotation
					JOINT HairG1
					{
						OFFSET -0.293600 -6.081398 -0.910100
						CHANNELS 3 Xrotation Yrotation Zrotation
						End Site
						{
							OFFSET 0.000000 6.156120 0.000000
						}
					}
				}
			}
		}
	}
	JOINT Pouch
	{
		OFFSET 0.000000 4.394501 10.847300
		CHANNELS 3 Xrotation Yrotation Zrotation
		End Site
		{
			OFFSET 0.000000 21.880577 0.000000
		}
	}
	JOINT Bag
	{
		OFFSET -13.229000 4.813004 -0.593300
		CHANNELS 3 Xrotation Yrotation Zrotation
		End Site
		{
			OFFSET 0.000000 21.880577 0.000000
		}
	}
	JOINT OccupyGuyFacialAnim_Joint
	{
		OFFSET 1.000000 -70.206398 -1.655000
		CHANNELS 3 Xrotation Yrotation Zrotation
		End Site
		{
			OFFSET 0.000000 21.880577 0.000000
		}
	}
}
MOTION
Frames: 4
Frame Time: 0.033333
1.120438 35.090027 -1.290655 42.688095 -51.966685 32.663235 0.000001 0.000002 -0.000001 -104.895648 -22.510166 38.211312 115.161689 -20.977405 0.834058 -28.460555 -6.300505 -13.520828 -0.000000 0.000000 -0.000000 -0.000000 0.000002 -0.000000 -116.927620 -0.601254 -31.183102 129.182305 3.848777 -2.622494 -27.922223 -3.254897 1.267293 -0.000000 0.000000 0.000000 0.000000 -0.000000 0.000000 2.905178 -0.519338 -1.055572 7.286810 -1.850066 -2.589108 7.287445 -1.836951 -2.591998 10.226041 26.735949 -15.005830 -43.061597 24.871053 4.446577 0.000000 0.000000 0.000000 0.000000 0.000000 0.000000 0.000000 0.000000 0.000001 0.000000 0.000000 -0.000000 0.000000 0.000000 -0.000000 0.000000 0.000000 -0.000000 0.000000 0.000000 -0.000000 0.000000 0.000000 0.000000 0.000000 0.000000 0.000000 9.760409 -6.511853 -9.312281 -72.511549 -11.561763 -30.905411 36.851002 -14.102764 14.457970 5.855794 -10.178375 -1.872707 40.109880 -15.297190 -0.360544 5.639922 28.098218 11.338823 -0.000000 0.000004 0.000000 6.882178 2.840107 -61.140548 8.248007 7.639994 -89.898000 0.000001 -0.000000 -0.000000 -2.345645 4.688971 -62.655299 8.754033 9.897111 -87.051253 0.000001 -0.000002 0.000000 -9.042475 10.045707 -60.766205 8.524056 9.508784 -66.893213 -0.000001 0.000001 -0.000001 -17.946855 14.755131 -51.486082 8.857216 8.678409 -84.811682 0.000000 0.000000 0.000003 -0.000001 -0.000000 0.000000 9.054156 13.976466 25.178546 0.598558 2.185408 21.190937 -6.097270 21.564012 4.132483 -3.514056 -2.213103 1.920126 -2.359901 -6.108362 10.724913 2.361650 -23.814143 -8.747993 -0.000003 -0.000001 -0.000001 -0.073556 0.538908 0.731402 0.034437 -0.081104 5.086474 0.000004 -0.000000 0.000004 0.369793 -5.920896 2.584745 1.431817 -4.196961 24.053481 0.000002 -0.000002 -0.000001 1.202861 -11.757757 4.153366 1.805455 -3.766216 26.866751 -0.000000 -0.000000 -0.000001 2.136718 -19.179987 11.322051 3.367644 -2.094285 18.829785 -0.000002 0.000001 0.000001 0.000004 0.000001 -0.000001 -0.000003 0.000002 -0.000002 -0.000000 0.000000 -0.000001 -0.000003 0.000002 0.000001 -0.000003 0.000002 0.000001 -0.000003 0.000002 -0.000002 -0.000000 0.000000 -0.000001 -0.000003 0.000002 0.000001 -0.000003 0.000002 0.000001 -0.000003 0.000002 -0.000002 -0.000000 0.000000 -0.000001 0.000001 0.000002 -0.000001 0.000001 0.000002 -0.000001 0.000001 0.000002 -0.000001 
1.136881 35.084412 -1.289803 42.705833 -51.958137 32.678524 -0.000000 -0.000000 -0.000001 -104.954456 -22.507891 38.169259 115.173628 -20.954489 0.830905 -28.439607 -6.305074 -13.518270 0.000000 0.000002 -0.000000 0.000001 -0.000001 -0.000000 -116.970814 -0.569114 -31.184168 129.177756 3.852912 -2.621897 -27.869197 -3.266733 1.281054 0.000000 0.000000 -0.000000 0.000000 0.000000 -0.000001 2.905543 -0.517335 -1.031647 7.286801 -1.850058 -2.589110 7.287464 -1.836962 -2.592001 10.189045 26.711220 -14.939562 -43.147230 24.841191 4.445660 0.000000 -0.000000 0.000000 0.000000 -0.000000 0.000000 0.000000 -0.000000 0.000000 0.000000 -0.000000 0.000000 0.000000 -0.000000 0.000000 0.000000 -0.000000 0.000000 0.000000 -0.000000 0.000000 0.000000 -0.000000 0.000000 0.000000 -0.000000 0.000000 9.787648 -6.497996 -9.279383 -72.593327 -11.533994 -30.919669 36.804970 -14.088194 14.447199 5.835312 -10.130118 -1.897597 40.109876 -15.297197 -0.360544 5.639918 28.098222 11.338831 -0.000003 0.000001 0.000001 6.882177 2.840107 -61.140554 8.248008 7.639995 -89.897994 0.000001 -0.000000 -0.000000 -2.345645 4.688970 -62.655306 8.754035 9.897113 -87.051253 -0.000001 0.000004 -0.000001 -9.042475 10.045712 -60.766205 8.524054 9.508784 -66.893213 -0.000001 0.000000 0.000001 -17.946855 14.755130 -51.486085 8.857214 8.678408 -84.811682 0.000001 0.000000 0.000003 0.000001 -0.000001 0.000003 9.069066 13.977527 25.164840 0.567677 2.152627 21.170147 -6.159810 21.549853 4.138433 -3.510873 -2.243014 1.957614 -2.367202 -6.091009 10.728669 2.357160 -23.799728 -8.744935 -0.000001 0.000000 -0.000000 -0.073384 0.539533 0.699930 0.034542 -0.080542 5.057494 -0.000002 0.000002 0.000002 0.369676 -5.919894 2.526266 1.430145 -4.196555 23.996666 0.000003 -0.000002 -0.000001 1.203190 -11.757000 4.114643 1.805664 -3.765271 26.828163 0.000001 0.000001 -0.000003 2.135438 -19.179120 11.273360 3.367119 -2.093347 18.782037 -0.000000 0.000001 0.000001 0.000003 -0.000000 0.000000 -0.000002 0.000000 -0.000002 0.000002 -0.000001 0.000001 -0.000002 0.000000 0.000001 -0.000002 0.000000 0.000001 -0.000002 0.000000 -0.000002 0.000002 -0.000001 0.000001 -0.000002 0.000000 0.000001 -0.000002 0.000000 0.000001 -0.000002 0.000000 -0.000002 0.000002 -0.000001 0.000001 -0.000000 -0.000000 -0.000001 -0.000000 -0.000000 -0.000001 -0.000000 -0.000000 -0.000001 
1.153801 35.078392 -1.288349 42.718595 -51.951706 32.689808 -0.000001 -0.000000 0.000000 -105.009473 -22.504751 38.128022 115.185225 -20.930406 0.827171 -28.423646 -6.308695 -13.515821 0.000000 -0.000000 -0.000000 0.000001 -0.000001 -0.000002 -117.013571 -0.539029 -31.184578 129.172579 3.855126 -2.621603 -27.815338 -3.278364 1.292948 -0.000000 -0.000000 -0.000000 -0.000000 -0.000000 -0.000000 2.905867 -0.515725 -1.007055 7.286806 -1.850071 -2.589107 7.287467 -1.836968 -2.592005 10.153306 26.685860 -14.873504 -43.250937 24.809387 4.444408 0.000000 -0.000000 -0.000001 0.000000 -0.000000 -0.000001 0.000000 -0.000000 -0.000000 0.000000 -0.000000 -0.000001 0.000001 -0.000000 -0.000001 0.000000 -0.000000 -0.000001 0.000001 -0.000000 -0.000001 0.000000 -0.000000 -0.000001 0.000000 -0.000000 -0.000001 9.835110 -6.445660 -9.187415 -72.700595 -11.463585 -30.996870 36.761632 -14.070734 14.435726 5.813913 -10.087570 -1.919755 40.109883 -15.297194 -0.360544 5.639919 28.098218 11.338832 0.000001 -0.000001 0.000000 6.882175 2.840108 -61.140554 8.248007 7.639994 -89.898000 0.000001 -0.000003 -0.000002 -2.345646 4.688970 -62.655299 8.754033 9.897111 -87.051253 0.000001 0.000002 -0.000001 -9.042475 10.045708 -60.766205 8.524056 9.508783 -66.893213 -0.000001 0.000000 -0.000004 -17.946855 14.755133 -51.486085 8.857216 8.678410 -84.811682 -0.000000 -0.000001 0.000004 0.000000 -0.000001 -0.000000 9.085311 13.980080 25.149144 0.537285 2.112898 21.157180 -6.224851 21.542558 4.143997 -3.506403 -2.281607 1.985602 -2.373071 -6.072887 10.733402 2.351931 -23.782966 -8.741497 0.000001 -0.000002 -0.000002 -0.073146 0.540394 0.659166 0.034718 -0.080114 5.016531 0.000001 0.000001 0.000002 0.365662 -5.919497 2.454509 1.428055 -4.196061 23.926894 0.000003 0.000002 -0.000000 1.203577 -11.755963 4.064156 1.802255 -3.764092 26.778117 -0.000000 -0.000001 -0.000002 2.133905 -19.178070 11.211502 3.366645 -2.096894 18.722119 0.000000 -0.000000 -0.000001 0.000004 0.000003 0.000001 0.000003 0.000001 0.000001 0.000002 -0.000002 0.000002 0.000003 0.000001 0.000001 0.000003 0.000001 0.000001 0.000003 0.000001 0.000001 0.000002 -0.000002 0.000003 0.000003 0.000001 0.000001 0.000003 0.000001 0.000001 0.000003 0.000001 0.000001 0.000002 -0.000002 0.000003 -0.000001 -0.000000 0.000000 -0.000001 -0.000000 0.000000 -0.000001 -0.000000 0.000000 
1.170380 35.072845 -1.287481 42.735152 -51.942513 32.704083 -0.000000 -0.000001 0.000001 -105.068219 -22.501525 38.085094 115.197465 -20.901349 0.829340 -28.405876 -6.314636 -13.507535 0.000000 0.000000 0.000000 -0.000000 -0.000001 -0.000002 -117.058446 -0.509005 -31.184864 129.167879 3.856536 -2.621790 -27.761683 -3.288804 1.305825 0.000001 0.000000 -0.000000 -0.000000 -0.000000 -0.000000 2.906213 -0.513982 -0.982360 7.286819 -1.850069 -2.589112 7.287449 -1.836935 -2.592009 10.114746 26.661348 -14.805357 -43.353526 24.778080 4.443107 -0.000000 0.000000 -0.000001 -0.000000 0.000000 -0.000001 -0.000000 0.000000 -0.000000 -0.000000 0.000000 -0.000001 -0.000000 0.000000 -0.000001 -0.000000 0.000000 -0.000001 -0.000000 0.000000 -0.000001 -0.000000 0.000000 -0.000001 -0.000000 0.000000 -0.000001 9.852991 -6.454141 -9.175855 -72.772100 -11.449910 -30.988008 36.716826 -14.054390 14.424400 5.792911 -10.037421 -1.946202 40.109883 -15.297201 -0.360545 5.639918 28.098222 11.338824 -0.000004 0.000002 0.000002 6.882175 2.840107 -61.140548 8.248004 7.639995 -89.898000 0.000000 0.000002 0.000000 -2.345645 4.688971 -62.655306 8.754034 9.897112 -87.051253 -0.000001 0.000004 0.000001 -9.042475 10.045706 -60.766205 8.524056 9.508783 -66.893206 0.000001 -0.000001 -0.000003 -17.946853 14.755130 -51.486085 8.857213 8.678407 -84.811682 -0.000000 -0.000000 0.000003 0.000000 0.000000 -0.000003 9.100804 13.983263 25.137383 0.508073 2.064439 21.147314 -6.292359 21.542217 4.149345 -3.506971 -2.330088 2.007140 -2.377589 -6.058064 10.737420 2.345216 -23.761521 -8.736991 0.000002 0.000000 0.000001 -0.072880 0.541514 0.597516 0.034967 -0.079696 4.972775 0.000003 -0.000000 0.000002 0.357049 -5.920215 2.371387 1.425721 -4.195536 23.848019 0.000000 0.000002 -0.000001 1.204085 -11.754690 4.004128 1.798274 -3.764419 26.717057 -0.000001 -0.000003 0.000001 2.131993 -19.176782 11.138093 3.366099 -2.100940 18.651546 -0.000001 0.000002 0.000003 -0.000001 -0.000004 -0.000003 -0.000002 0.000003 -0.000002 -0.000002 -0.000003 0.000001 -0.000002 0.000003 -0.000001 -0.000002 0.000003 -0.000001 -0.000002 0.000003 -0.000002 -0.000002 -0.000003 0.000002 -0.000002 0.000003 -0.000001 -0.000002 0.000003 -0.000001 -0.000002 0.000003 -0.000002 -0.000002 -0.000003 0.000002 -0.000000 -0.000001 0.000001 -0.000000 -0.000001 0.000001 -0.000000 -0.000001 0.000001 
